<svg xmlns="http://www.w3.org/2000/svg" width="512" height="512" fill="none" style="-webkit-print-color-adjust:exact"><defs><clipPath id="a" class="frame-clip"><rect width="512" height="512" rx="0" ry="0" style="fill:#fff;fill-opacity:0"/></clipPath></defs><g clip-path="url(#a)"><rect width="512" height="512" fill="none" class="frame-background" rx="0" ry="0" style="fill:#fff;fill-opacity:0"/><g class="frame-children"><defs><filter id="b" width="1.3" height="1.2" x="-.1" y="-.1" color-interpolation-filters="sRGB" filterUnits="objectBoundingBox"><feFlood flood-opacity="0" result="BackgroundImageFix"/><feColorMatrix in="SourceAlpha" values="0 0 0 0 0 0 0 0 0 0 0 0 0 0 0 0 0 0 127 0"/><feMorphology in="SourceAlpha" operator="dilate" radius="2" result="filter_027f8fc3-4180-801f-8001-d026f13f2162"/><feOffset dy="4"/><feGaussianBlur stdDeviation="3"/><feColorMatrix values="0 0 0 0 0 0 0 0 0 0 0 0 0 0 0 0 0 0 0.2 0"/><feBlend in2="BackgroundImageFix" result="filter_027f8fc3-4180-801f-8001-d026f13f2162"/><feBlend in="SourceGraphic" in2="filter_027f8fc3-4180-801f-8001-d026f13f2162" result="shape"/></filter></defs><rect width="274" height="434" x="119" y="39" filter="url(#b)" rx="0" ry="0" style="fill:#fff;fill-opacity:1"/><rect width="274" height="434" x="119" y="39" class="stroke-shape" rx="0" ry="0" style="fill:none;stroke-width:1;stroke:#000;stroke-opacity:.5"/><rect width="211" height="26" x="140" y="60" rx="0" ry="0" style="fill:#000;fill-opacity:.425"/><rect width="133" height="17" x="140" y="97" rx="0" ry="0" style="fill:#000;fill-opacity:.425"/><rect width="233" height="8" x="139" y="134" rx="0" ry="0" style="fill:#000;fill-opacity:.53125"/><rect width="233" height="8" x="139" y="198" rx="0" ry="0" style="fill:#000;fill-opacity:.53125"/><rect width="233" height="8" x="139" y="230" rx="0" ry="0" style="fill:#000;fill-opacity:.53125"/><rect width="233" height="8" x="139" y="246" rx="0" ry="0" style="fill:#000;fill-opacity:.53125"/><rect width="233" height="8" x="139" y="214" rx="0" ry="0" style="fill:#000;fill-opacity:.53125"/><rect width="233" height="8" x="139" y="166" rx="0" ry="0" style="fill:#000;fill-opacity:.53125"/><rect width="233" height="8" x="139" y="182" rx="0" ry="0" style="fill:#000;fill-opacity:.53125"/><rect width="233" height="8" x="139" y="150" rx="0" ry="0" style="fill:#000;fill-opacity:.53125"/></g></g></svg>